<svg width="95" height="22" viewBox="0 0 95 22" fill="none" xmlns="http://www.w3.org/2000/svg">
<g clip-path="url(#clip0_809_2952)">
<path d="M24.7268 14.3417L19.9983 9.53086C19.823 9.35278 19.5854 9.25276 19.3378 9.25276C19.0901 9.25276 18.8525 9.35278 18.6772 9.53086L17.0974 11.14C17.0103 11.2281 16.9412 11.3328 16.894 11.4481C16.8468 11.5634 16.8226 11.6871 16.8226 11.8121C16.8226 11.937 16.8468 12.0607 16.894 12.176C16.9412 12.2913 17.0103 12.396 17.0974 12.4841L18.0085 13.411H15.093C15.0615 13.4092 15.0298 13.4092 14.9983 13.411C14.8401 13.3851 14.6902 13.3212 14.5612 13.2244C14.4322 13.1277 14.3278 13.001 14.2567 12.8549C14.1543 12.6375 14.1336 12.3896 14.1984 12.1578L19.6648 2.51763C19.7765 2.31376 19.8063 2.0738 19.7478 1.8481C19.6894 1.62239 19.5473 1.42848 19.3514 1.30704L17.3306 0.120561C17.1271 0.00153444 16.8855 -0.0305693 16.6587 0.0312809C16.4319 0.093131 16.2385 0.243894 16.1207 0.450552L11.7476 8.15713C11.6902 8.13617 11.6347 8.11011 11.5817 8.07927C11.4353 7.98402 11.3133 7.85462 11.2258 7.70179C11.1383 7.54897 11.088 7.37713 11.0788 7.20053V5.55799C11.0791 5.40689 11.05 5.25723 10.9934 5.11757C10.9367 4.9779 10.8535 4.85097 10.7486 4.74404C10.6436 4.63711 10.519 4.55228 10.3818 4.4944C10.2447 4.43652 10.0976 4.40673 9.94909 4.40673H2.62037C2.57846 4.40673 2.53837 4.40673 2.49646 4.40673C2.28526 4.41553 2.08364 4.49876 1.92613 4.64218C1.85865 4.69671 1.79751 4.75891 1.74391 4.82756L0.269787 6.32735C0.185824 6.41244 0.119201 6.51356 0.073742 6.62491C0.0282828 6.73626 0.00488281 6.85564 0.00488281 6.97621C0.00488281 7.09678 0.0282828 7.21617 0.073742 7.32752C0.119201 7.43886 0.185824 7.53998 0.269787 7.62507L5.04384 12.4822C5.12747 12.5677 5.22686 12.6354 5.3363 12.6817C5.44575 12.7279 5.56309 12.7518 5.68159 12.7518C5.8001 12.7518 5.91745 12.7279 6.02689 12.6817C6.13633 12.6354 6.23572 12.5677 6.31935 12.4822L7.94836 10.8249C8.03232 10.7398 8.09895 10.6387 8.1444 10.5273C8.18986 10.416 8.21326 10.2966 8.21326 10.176C8.21326 10.0554 8.18986 9.93605 8.1444 9.82471C8.09895 9.71336 8.03232 9.61224 7.94836 9.52715L7.00995 8.5724H9.9254C10.112 8.57504 10.2936 8.63409 10.447 8.74204C10.6005 8.85 10.719 9.00197 10.7873 9.17862C10.8656 9.37435 10.8765 9.59127 10.8183 9.79411L5.32081 19.4528C5.26264 19.5553 5.22488 19.6685 5.2097 19.7858C5.19452 19.9031 5.20221 20.0224 5.23233 20.1367C5.26245 20.251 5.31441 20.3581 5.38524 20.452C5.45608 20.5459 5.54439 20.6247 5.64515 20.6838L7.6641 21.8703C7.76492 21.9298 7.87627 21.9684 7.99179 21.984C8.10731 21.9996 8.22473 21.9919 8.3373 21.9612C8.44987 21.9305 8.55538 21.8776 8.6478 21.8054C8.74021 21.7331 8.81771 21.6431 8.87584 21.5403L13.2363 13.8578C13.3153 13.8844 13.3906 13.9212 13.4604 13.9672C13.5974 14.0649 13.7116 14.1921 13.7948 14.3398C13.8779 14.4876 13.928 14.6521 13.9414 14.8218V16.4162C13.9414 16.7259 14.0624 17.023 14.2777 17.242C14.4929 17.4611 14.7849 17.5841 15.0894 17.5841H22.378C22.4708 17.5837 22.5632 17.5719 22.6532 17.5489C22.8402 17.5153 23.0126 17.424 23.147 17.2875L24.7286 15.6783C24.9012 15.5001 24.9978 15.2598 24.9974 15.0096C24.9971 14.7594 24.8998 14.5194 24.7268 14.3417Z" fill="#E7801C"/>
</g>
<g clip-path="url(#clip1_809_2952)">
<path d="M38.4276 17.7999C37.2544 17.8341 36.0961 17.5313 35.0897 16.9274C34.1729 16.3562 33.433 15.5414 32.9524 14.574C32.4412 13.5537 32.1831 12.4253 32.2 11.2842C32.1954 10.1413 32.4702 9.01467 33.0005 8.00229C33.4993 7.0323 34.2553 6.21817 35.1857 5.64895C36.185 5.04907 37.3345 4.74642 38.4996 4.77645C39.7614 4.74631 41.0029 5.09785 42.0616 5.78504C43.0354 6.4211 43.8052 7.3243 44.2789 8.38652H42.678C42.2964 7.71989 41.7437 7.16722 41.0771 6.78561C40.2777 6.38198 39.3921 6.17906 38.4967 6.1944C37.6014 6.20974 36.7232 6.44287 35.9382 6.87365C35.209 7.3124 34.6181 7.94768 34.2332 8.7067C33.8511 9.51647 33.6528 10.4008 33.6528 11.2962C33.6528 12.1916 33.8511 13.0759 34.2332 13.8857C34.6058 14.6496 35.189 15.2912 35.9141 15.7347C36.7143 16.2026 37.629 16.4382 38.5556 16.4151C39.3132 16.4177 40.0611 16.2451 40.7409 15.9108C41.4158 15.5897 41.9911 15.0918 42.4058 14.47C42.8519 13.8005 43.0785 13.0088 43.0542 12.2047H38.4035V10.8839H44.375V17.6478H43.0542V15.3985C42.7631 15.832 42.4129 16.2227 42.0136 16.5592C41.5601 16.9448 41.0427 17.2482 40.4848 17.4557C39.8266 17.6982 39.1288 17.8149 38.4276 17.7999Z" fill="#404040"/>
<path d="M38.4277 18.0001C37.2179 18.0299 36.0245 17.7162 34.9857 17.0956C34.0436 16.5122 33.2794 15.6816 32.7765 14.6942C32.2451 13.6478 31.9707 12.4898 31.976 11.3163C31.968 10.1449 32.2426 8.98894 32.7765 7.94633C33.2973 6.95605 34.0776 6.12599 35.0338 5.54496C36.0656 4.92867 37.25 4.61524 38.4517 4.64046C39.7529 4.61212 41.0327 4.97458 42.1258 5.68104C43.1315 6.33888 43.9264 7.27265 44.4151 8.37057L44.5432 8.65073H42.542L42.486 8.54667C42.1211 7.90564 41.5901 7.37476 40.9491 7.00981C40.1822 6.62166 39.3321 6.42678 38.4728 6.44212C37.6134 6.45747 36.7708 6.68257 36.0183 7.09785C35.3301 7.51963 34.7752 8.12732 34.4174 8.85085C34.0317 9.62616 33.8368 10.4824 33.849 11.3483C33.8406 12.2128 34.0324 13.0676 34.4094 13.8457C34.7644 14.5732 35.3198 15.1841 36.0103 15.6067C36.7789 16.0565 37.6574 16.2838 38.5477 16.2631C39.2744 16.2659 39.9919 16.1016 40.6449 15.7828C41.2903 15.4725 41.8425 14.9977 42.2458 14.406C42.6286 13.8258 42.837 13.148 42.8462 12.4529H38.2035V10.7479H44.6072V17.912H42.8862V16.063C42.6699 16.318 42.4344 16.5562 42.1818 16.7754C41.7034 17.1715 41.1623 17.4853 40.5809 17.7039C39.8878 17.9353 39.1576 18.0358 38.4277 18.0001ZM38.4277 4.97664C37.3027 4.95077 36.1931 5.24204 35.2259 5.81713C34.327 6.37117 33.5964 7.1599 33.1126 8.09842C32.6108 9.09035 32.3554 10.1887 32.3682 11.3002C32.3566 12.4099 32.6061 13.5067 33.0966 14.5021C33.5652 15.4363 34.2826 16.223 35.1698 16.7754C36.1362 17.3525 37.2464 17.6439 38.3716 17.6159C39.0433 17.6279 39.7112 17.5139 40.3408 17.2797C40.9006 17.0872 41.4192 16.7912 41.8696 16.4072C42.2576 16.086 42.5949 15.7082 42.8702 15.2865L43.2384 14.7262V17.4478H44.1589V11.0841H38.5557V11.9887H43.2064V12.1888C43.2295 13.0398 42.9922 13.8777 42.526 14.5901C42.086 15.2357 41.4843 15.7546 40.781 16.095C39.9904 16.4677 39.1216 16.6448 38.2481 16.6114C37.3747 16.578 36.522 16.335 35.7621 15.9029C35.0073 15.4384 34.3995 14.7695 34.0091 13.9738C33.6114 13.1372 33.405 12.2226 33.405 11.2963C33.405 10.37 33.6114 9.45529 34.0091 8.61873C34.4113 7.8277 35.0269 7.165 35.7862 6.70563C36.6197 6.21623 37.5735 5.9695 38.5398 5.99323C39.4419 5.96662 40.3347 6.18222 41.1252 6.61759C41.7855 7.00742 42.3363 7.5582 42.7261 8.21851H43.8628C43.3994 7.3115 42.7068 6.54155 41.8536 5.98522C40.8496 5.32149 39.6713 4.97048 38.4677 4.97664H38.4277Z" fill="#404040"/>
<path d="M46.6724 17.6479V8.04241H48.1052V10.4037C48.1875 10.174 48.2892 9.95179 48.4093 9.73938C48.5833 9.44321 48.7989 9.17362 49.0497 8.93892C49.3607 8.63961 49.7208 8.39594 50.1143 8.21851C50.5964 8.00998 51.1181 7.9089 51.6432 7.92232H51.7393V9.36316H51.5712C50.9042 9.34499 50.2504 9.55069 49.7141 9.94748C49.1922 10.34 48.7813 10.8613 48.5214 11.4604C48.2457 12.0886 48.104 12.7674 48.1052 13.4535V17.6799L46.6724 17.6479Z" fill="#404040"/>
<path d="M48.2732 17.848H46.4402V7.84228H48.2732V9.50722C48.4435 9.23641 48.645 8.98656 48.8736 8.7628C49.1995 8.43133 49.5816 8.16031 50.0022 7.96234C50.5071 7.74418 51.0532 7.63768 51.6031 7.65015H51.8993V9.49122H51.5311C50.9298 9.50727 50.3493 9.71478 49.8741 10.0835C49.3781 10.4565 48.9888 10.9534 48.7455 11.5244C48.479 12.124 48.3426 12.7733 48.3453 13.4295L48.2732 17.848ZM46.8404 17.4478H47.873V13.4455C47.8732 12.7321 48.0203 12.0263 48.3052 11.3723C48.5792 10.7393 49.0121 10.1878 49.5619 9.77136C50.1247 9.35643 50.8079 9.13715 51.507 9.147V8.10642C51.0476 8.10573 50.5929 8.19831 50.1703 8.37857C49.7969 8.54813 49.4557 8.78104 49.1617 9.06698C48.918 9.30009 48.7127 9.57024 48.5534 9.86743C48.4388 10.0665 48.3423 10.2754 48.2652 10.4918L47.873 11.7645V8.24251H46.8404V17.4478Z" fill="#404040"/>
<path d="M57.1744 17.8C56.3322 17.8242 55.5009 17.6053 54.7798 17.1695C54.0586 16.7337 53.4783 16.0995 53.1081 15.3426C52.718 14.5682 52.5178 13.7122 52.5238 12.8452C52.514 11.9752 52.7144 11.1156 53.1081 10.3397C53.477 9.58245 54.0574 8.94817 54.779 8.51352C55.5006 8.07886 56.3325 7.86243 57.1744 7.89033C57.8847 7.87105 58.5886 8.02778 59.2236 8.34658C59.78 8.64695 60.2573 9.0749 60.6164 9.59531V8.04242H62.0572V17.6479H60.6164V16.111C60.2544 16.6227 59.7774 17.0422 59.2236 17.3357C58.5908 17.6612 57.8858 17.8209 57.1744 17.8ZM57.3665 16.4953C58.0096 16.5174 58.6439 16.3414 59.1836 15.991C59.6755 15.661 60.0661 15.201 60.3122 14.6622C60.5666 14.0903 60.6976 13.4711 60.6965 12.8452C60.7 12.2164 60.5689 11.5941 60.3122 11.0201C60.0637 10.4829 59.6735 10.0235 59.1836 9.69136C58.6414 9.34749 58.0083 9.17458 57.3665 9.19508C56.7441 9.1752 56.1294 9.33724 55.5977 9.66139C55.066 9.98554 54.6403 10.4577 54.3728 11.0201C54.1094 11.5911 53.9729 12.2124 53.9729 12.8412C53.9729 13.47 54.1094 14.0913 54.3728 14.6622C54.6391 15.2261 55.0643 15.6999 55.5961 16.0256C56.1279 16.3512 56.7432 16.5144 57.3665 16.4953Z" fill="#404040"/>
<path d="M57.1743 17.9999C56.2945 18.022 55.4267 17.7917 54.6736 17.3364C53.9204 16.8811 53.3132 16.2197 52.9239 15.4304C52.5287 14.623 52.3232 13.7359 52.3232 12.837C52.3232 11.938 52.5287 11.0509 52.9239 10.2435C53.3147 9.45655 53.9227 8.79793 54.6759 8.34545C55.429 7.89297 56.296 7.66554 57.1743 7.69002C57.918 7.67091 58.6549 7.83587 59.3195 8.17027C59.7312 8.39118 60.1021 8.68085 60.4161 9.02677V7.84211H62.2572V17.8478H60.4161V16.6712C60.0963 16.9955 59.726 17.2659 59.3195 17.4716C58.6606 17.8262 57.9225 18.008 57.1743 17.9999ZM57.1743 8.09025C56.3698 8.06463 55.575 8.27148 54.885 8.68602C54.195 9.10057 53.6392 9.70522 53.2841 10.4276C52.9191 11.1755 52.7294 11.9967 52.7294 12.8289C52.7294 13.6612 52.9191 14.4824 53.2841 15.2303C53.6404 15.9523 54.1963 16.5569 54.8858 16.9726C55.5753 17.3883 56.3695 17.5976 57.1743 17.5756C57.8521 17.5967 58.5242 17.4453 59.1274 17.1354C59.6549 16.8573 60.1079 16.4565 60.4482 15.9667L60.8164 15.4544V17.4236H61.881V8.24234H60.8404V10.2435L60.4722 9.70716C60.1327 9.21262 59.6799 8.80643 59.1515 8.52248C58.539 8.21505 57.8592 8.06644 57.1743 8.09025ZM57.3664 16.6952C56.6847 16.7096 56.0138 16.5231 55.4373 16.1588C54.8957 15.8139 54.4628 15.3227 54.1886 14.742C53.9145 14.1443 53.7727 13.4945 53.7727 12.837C53.7727 12.1794 53.9145 11.5296 54.1886 10.9319C54.4745 10.3313 54.9302 9.82779 55.4992 9.4835C56.0683 9.13921 56.7258 8.96931 57.3904 8.99477C58.0734 8.97035 58.7472 9.15766 59.3195 9.53106C59.8368 9.88113 60.2491 10.3654 60.5122 10.9319C60.7812 11.531 60.9203 12.1802 60.9203 12.837C60.9203 13.4937 60.7812 14.143 60.5122 14.742C60.2496 15.3445 59.8109 15.8534 59.2538 16.202C58.6966 16.5505 58.0471 16.7225 57.3904 16.6952H57.3664ZM57.3664 9.395C56.7808 9.37436 56.202 9.52555 55.7013 9.82994C55.2007 10.1343 54.8 10.5786 54.5488 11.108C54.2948 11.6514 54.1662 12.2451 54.1726 12.845C54.1688 13.442 54.2973 14.0325 54.5488 14.5739C54.7511 14.9653 55.032 15.3108 55.3739 15.5887C55.7158 15.8665 56.1114 16.0709 56.536 16.1888C56.9605 16.3068 57.4048 16.3358 57.841 16.2742C58.2773 16.2126 58.6962 16.0616 59.0714 15.8307C59.5335 15.5181 59.8994 15.0829 60.128 14.5739C60.3707 14.027 60.4961 13.4353 60.4961 12.837C60.4961 12.2386 60.3707 11.6469 60.128 11.1C59.8969 10.5969 59.5313 10.1675 59.0714 9.85925C58.5633 9.53508 57.9687 9.37317 57.3664 9.395Z" fill="#404040"/>
<path d="M68.6849 17.8C67.8419 17.8227 67.0101 17.6034 66.2879 17.1678C65.5658 16.7323 64.9837 16.0988 64.6106 15.3426C64.223 14.5676 64.0255 13.7116 64.0343 12.8452C64.0217 11.9758 64.2194 11.1162 64.6106 10.3397C64.9743 9.60969 65.5272 8.99051 66.2115 8.54667C66.9477 8.09669 67.7983 7.86879 68.6609 7.89032C69.371 7.8717 70.0749 8.02839 70.7101 8.34656C71.2652 8.64569 71.7401 9.074 72.0949 9.59529V4.2002H73.5437V17.6479H72.0949V16.111C71.7391 16.6252 71.2639 17.0455 70.7101 17.3357C70.0841 17.6562 69.388 17.8158 68.6849 17.8ZM68.877 16.4952C69.4944 16.5213 70.1052 16.3603 70.6294 16.0332C71.1537 15.706 71.5668 15.2282 71.8147 14.6622C72.0681 14.0885 72.199 13.4683 72.199 12.8411C72.199 12.214 72.0681 11.5938 71.8147 11.0201C71.5674 10.4542 71.1541 9.9768 70.6296 9.65092C70.105 9.32504 69.4939 9.16608 68.877 9.19507C68.2334 9.1797 67.5992 9.35215 67.052 9.69135C66.5454 10.0157 66.1403 10.4762 65.8833 11.0201C65.6145 11.5896 65.4752 12.2114 65.4752 12.8411C65.4752 13.4708 65.6145 14.0927 65.8833 14.6622C66.1403 15.2061 66.5454 15.6666 67.052 15.9909C67.5977 16.3336 68.2329 16.5064 68.877 16.4872V16.4952Z" fill="#404040"/>
<path d="M68.685 18C67.8052 18.0221 66.9375 17.7918 66.1843 17.3365C65.4311 16.8812 64.824 16.2198 64.4346 15.4305C64.0394 14.6231 63.834 13.736 63.834 12.8371C63.834 11.9381 64.0394 11.051 64.4346 10.2436C64.8241 9.48185 65.4099 8.83795 66.1316 8.3785C66.8995 7.90971 67.7856 7.67083 68.685 7.69012C69.4263 7.66999 70.1609 7.83505 70.8223 8.17038C71.2367 8.38705 71.6083 8.67727 71.9189 9.02687V4H73.7679V17.8479H71.9189V16.6713C71.6022 16.9993 71.2312 17.2701 70.8223 17.4717C70.1666 17.8273 69.4309 18.0092 68.685 18ZM68.685 8.09035C67.8792 8.06317 67.0826 8.26927 66.3911 8.6839C65.6996 9.09854 65.1425 9.70405 64.7868 10.4277C64.4269 11.1771 64.2401 11.9977 64.2401 12.829C64.2401 13.6604 64.4269 14.481 64.7868 15.2304C65.1437 15.9536 65.7008 16.5591 66.3919 16.9749C67.083 17.3907 67.8789 17.5992 68.685 17.5758C69.3627 17.5951 70.0343 17.4437 70.6382 17.1355C71.1657 16.8574 71.6187 16.4566 71.9589 15.9668L72.3191 15.4545V17.4237H73.3677V4.40023H72.2871V10.2436L71.9269 9.70727C71.5874 9.21272 71.1346 8.80653 70.6062 8.52258C70.0099 8.22603 69.3509 8.07776 68.685 8.09035ZM68.8771 16.6953C68.1929 16.7099 67.5194 16.5234 66.9401 16.159C66.4008 15.8135 65.9706 15.3222 65.6994 14.7421C65.42 14.1459 65.2752 13.4955 65.2752 12.8371C65.2752 12.1786 65.42 11.5282 65.6994 10.932C65.9836 10.3301 66.4388 9.82542 67.0083 9.48089C67.5778 9.13636 68.2362 8.96732 68.9012 8.99487C69.5838 8.97305 70.2568 9.16014 70.8303 9.53116C71.3476 9.88123 71.7598 10.3655 72.0229 10.932C72.2871 11.5324 72.4235 12.1811 72.4235 12.8371C72.4235 13.493 72.2871 14.1418 72.0229 14.7421C71.7603 15.3446 71.3216 15.8535 70.7645 16.2021C70.2073 16.5506 69.5578 16.7226 68.9012 16.6953H68.8771ZM68.8771 9.3951C68.2916 9.37446 67.7128 9.52565 67.2121 9.83004C66.7114 10.1344 66.3107 10.5787 66.0595 11.1081C65.7993 11.6497 65.6678 12.2442 65.6753 12.8451C65.6705 13.4431 65.8018 14.0344 66.0595 14.574C66.2978 15.1188 66.6897 15.5824 67.1873 15.9079C67.6849 16.2334 68.2665 16.4067 68.8611 16.4067C69.4557 16.4067 70.0374 16.2334 70.535 15.9079C71.0326 15.5824 71.4245 15.1188 71.6627 14.574C71.9054 14.0271 72.0309 13.4354 72.0309 12.8371C72.0309 12.2387 71.9054 11.647 71.6627 11.1001C71.4301 10.5706 71.0424 10.1242 70.5508 9.81983C70.0592 9.51542 69.4868 9.36732 68.9092 9.3951H68.8771Z" fill="#404040"/>
<path d="M79.8833 17.8C79.2321 17.7992 78.5913 17.6369 78.0182 17.3277C77.419 17.0039 76.9227 16.5186 76.5854 15.9269C76.2034 15.2229 76.0156 14.4301 76.0411 13.6296V8.02637H77.4819V13.5735C77.4699 13.9599 77.5344 14.3448 77.6718 14.7061C77.8092 15.0674 78.0167 15.398 78.2824 15.6787C78.5281 15.9422 78.8274 16.15 79.1602 16.2881C79.4929 16.4262 79.8514 16.4913 80.2115 16.4792C80.5962 16.4869 80.9785 16.4165 81.3351 16.2721C81.6918 16.1277 82.0153 15.9124 82.2863 15.6392C82.5572 15.366 82.7699 15.0406 82.9113 14.6828C83.0528 14.325 83.1201 13.9421 83.1092 13.5575V8.02637H84.55V17.6319H83.1092V16.135C82.7598 16.5961 82.3316 16.9917 81.8444 17.3037C81.2541 17.6591 80.5717 17.8318 79.8833 17.8Z" fill="#404040"/>
<path d="M79.8834 18.0001C79.1988 17.9991 78.525 17.8286 77.9223 17.5038C77.2936 17.1622 76.7724 16.6522 76.4174 16.0309C76.0128 15.2969 75.8137 14.4673 75.8411 13.6296V7.84229H77.6822V13.5896C77.6635 13.9481 77.7161 14.3067 77.837 14.6447C77.9579 14.9827 78.1447 15.2934 78.3866 15.5587C78.6145 15.8015 78.8916 15.9928 79.1995 16.1198C79.5073 16.2468 79.8387 16.3066 80.1716 16.2951C80.6485 16.3012 81.1183 16.1796 81.5324 15.9429C81.932 15.7115 82.2677 15.3841 82.5089 14.9904C82.7548 14.5593 82.8793 14.0697 82.8691 13.5735V7.84229H84.7102V17.848H82.8691V16.6953C82.5857 17.0003 82.2658 17.2691 81.9166 17.4958C81.3001 17.8526 80.5952 18.0274 79.8834 18.0001ZM76.2413 8.24251V13.6296C76.2154 14.394 76.3951 15.1515 76.7617 15.8228C77.0782 16.3845 77.5472 16.8451 78.1144 17.1516C78.6581 17.4445 79.2658 17.5986 79.8834 17.5999C80.5194 17.6259 81.1496 17.4704 81.7005 17.1516C82.1673 16.8535 82.5767 16.4739 82.9092 16.0309L83.2693 15.5507V17.4478H84.2939V8.24251H83.2534V13.5735C83.2683 14.1239 83.1331 14.668 82.8624 15.1475C82.5916 15.6269 82.1955 16.0236 81.7165 16.2951C81.2402 16.5628 80.7019 16.7008 80.1556 16.6953C79.7684 16.7071 79.3832 16.636 79.0257 16.4869C78.6681 16.3379 78.3465 16.1142 78.0824 15.8308C77.8078 15.5285 77.5957 15.1748 77.4583 14.7901C77.321 14.4055 77.261 13.9975 77.2819 13.5896V8.24251H76.2413Z" fill="#404040"/>
<path d="M90.5854 17.7999C89.8146 17.8251 89.0481 17.6745 88.3441 17.3596C87.7838 17.1052 87.3027 16.7042 86.9513 16.199C86.6326 15.7229 86.4474 15.1701 86.415 14.5981H87.9119C87.9551 14.9283 88.0698 15.2452 88.2481 15.5266C88.4573 15.8489 88.7545 16.1045 89.1046 16.263C89.5773 16.4632 90.0885 16.5561 90.6014 16.5351C90.8399 16.5331 91.078 16.5144 91.3138 16.4791C91.5878 16.4408 91.8564 16.371 92.1143 16.271C92.37 16.1722 92.5979 16.0129 92.7786 15.8067C92.9653 15.5832 93.0598 15.297 93.0428 15.0063C93.0513 14.8267 93.0139 14.6479 92.9341 14.4868C92.8543 14.3258 92.7346 14.1877 92.5865 14.0858C92.2253 13.8404 91.8205 13.6665 91.3939 13.5734C90.9056 13.4534 90.3933 13.3333 89.849 13.2213C89.3235 13.1075 88.8071 12.955 88.3041 12.765C87.8479 12.5981 87.4388 12.3235 87.1114 11.9645C86.7851 11.5763 86.6191 11.0782 86.6472 10.5717C86.6296 10.1822 86.7071 9.79427 86.8731 9.44142C87.039 9.08858 87.2884 8.78144 87.5997 8.54658C88.4366 8.00876 89.425 7.75605 90.4173 7.82617C91.1265 7.79871 91.8327 7.93285 92.4825 8.21841C92.9653 8.44522 93.3816 8.79255 93.6912 9.22697C93.9603 9.62022 94.1281 10.0739 94.1794 10.5477H92.7226C92.6631 10.1305 92.4452 9.75213 92.1143 9.49113C91.6008 9.15425 90.9892 8.99923 90.3773 9.05087C88.8484 9.05087 88.088 9.51514 88.088 10.4357C88.0793 10.6106 88.1178 10.7846 88.1995 10.9395C88.2812 11.0944 88.403 11.2245 88.5522 11.3162C88.919 11.5476 89.3222 11.7154 89.7449 11.8125C90.2252 11.9325 90.7455 12.0446 91.2898 12.1566C91.8176 12.2576 92.3348 12.4077 92.8347 12.6049C93.2903 12.773 93.6992 13.0474 94.0273 13.4054C94.3493 13.8112 94.5116 14.3209 94.4836 14.8382C94.5046 15.257 94.4178 15.6742 94.2314 16.0498C94.045 16.4254 93.7653 16.7469 93.419 16.9834C92.5795 17.5373 91.591 17.8221 90.5854 17.7999Z" fill="#404040"/>
<path d="M90.5856 18C89.7838 18.0252 88.987 17.8663 88.2562 17.5357C87.6656 17.2649 87.1574 16.8423 86.7834 16.311C86.4522 15.8149 86.2564 15.241 86.2151 14.6461V14.4299H88.1042V14.606C88.1407 14.9093 88.2476 15.1998 88.4163 15.4545C88.6087 15.751 88.8884 15.9803 89.2168 16.1109C89.661 16.3015 90.1426 16.3891 90.6256 16.367C90.8561 16.3649 91.0862 16.3462 91.314 16.311C91.588 16.2817 91.857 16.2171 92.1145 16.1189C92.3374 16.0285 92.5371 15.8889 92.6988 15.7107C92.8491 15.5259 92.926 15.2922 92.9149 15.0543C92.9236 14.9058 92.8935 14.7576 92.8276 14.6242C92.7616 14.4909 92.662 14.377 92.5387 14.2939C92.1972 14.0674 91.8175 13.9047 91.4181 13.8136C90.9298 13.6935 90.4175 13.5734 89.8811 13.4614C89.3368 13.3499 88.8016 13.1973 88.2802 13.0051C87.8006 12.8385 87.3654 12.5648 87.0075 12.2046C86.651 11.7774 86.4681 11.2316 86.4952 10.6758C86.472 10.2565 86.5509 9.83787 86.7252 9.45584C86.8995 9.0738 87.1639 8.73979 87.4958 8.48253C88.3671 7.91823 89.3978 7.65142 90.4335 7.72208C91.1727 7.696 91.9083 7.83549 92.5867 8.13032C93.103 8.37216 93.5473 8.74466 93.8754 9.21094C94.1593 9.635 94.3377 10.1208 94.3957 10.6277V10.8439H92.5387V10.6758C92.4885 10.308 92.2959 9.97453 92.0024 9.74724C91.5285 9.43861 90.9648 9.2977 90.4015 9.34701C88.3123 9.34701 88.3123 10.2435 88.3123 10.5317C88.305 10.6744 88.336 10.8165 88.4021 10.9432C88.4683 11.0699 88.5672 11.1765 88.6885 11.2521C89.0354 11.4684 89.4173 11.6228 89.8171 11.7084C90.2894 11.8284 90.8097 11.9485 91.354 12.0526C91.9002 12.1602 92.4359 12.3155 92.9549 12.5168C93.444 12.6996 93.8809 12.9991 94.2276 13.3893C94.5909 13.8406 94.771 14.4122 94.7319 14.9902C94.7535 15.4402 94.6597 15.8883 94.4594 16.2917C94.2591 16.6952 93.9588 17.0408 93.5873 17.2956C92.6816 17.8302 91.6345 18.0759 90.5856 18ZM86.6393 14.7981C86.7044 15.2474 86.8684 15.6767 87.1196 16.0548C87.4507 16.5297 87.9044 16.906 88.4323 17.1435C89.1092 17.4446 89.8451 17.5896 90.5856 17.5677C91.5481 17.6129 92.502 17.3674 93.3232 16.8633C93.6425 16.6459 93.9003 16.3496 94.0714 16.0032C94.2425 15.6567 94.3211 15.272 94.2997 14.8862C94.3277 14.4184 94.1824 13.9568 93.8914 13.5894C93.5903 13.237 93.2087 12.9624 92.7788 12.789C92.2875 12.6007 91.7816 12.4534 91.266 12.3487C90.7137 12.2447 90.1934 12.1246 89.7131 12.0045C89.2679 11.9029 88.8431 11.727 88.4564 11.4842C88.2798 11.374 88.1356 11.2188 88.0385 11.0345C87.9415 10.8503 87.8951 10.6437 87.904 10.4356C87.904 9.38704 88.7045 8.83473 90.3935 8.83473C91.0529 8.77653 91.7122 8.94911 92.2585 9.323C92.5811 9.57742 92.8094 9.93246 92.9069 10.3316H93.9635C93.8918 9.97013 93.7475 9.627 93.5392 9.323C93.2528 8.91424 92.8635 8.58841 92.4106 8.37846C91.7876 8.10863 91.1118 7.98277 90.4335 8.01026C89.4846 7.94183 88.5388 8.18037 87.7359 8.69065C87.4479 8.90541 87.2175 9.18809 87.0653 9.51351C86.913 9.83893 86.8437 10.197 86.8635 10.5557C86.8354 11.0112 86.9813 11.4604 87.2716 11.8124C87.5836 12.1408 87.9671 12.3928 88.3923 12.5488C88.8847 12.7336 89.3905 12.8808 89.9052 12.9891L91.4581 13.3493C91.907 13.4474 92.3334 13.6293 92.7148 13.8856C92.8909 14.0056 93.0333 14.1686 93.1286 14.3591C93.2238 14.5497 93.2688 14.7614 93.2591 14.9742C93.2719 15.309 93.1608 15.6368 92.9469 15.8948C92.7441 16.1235 92.4886 16.2993 92.2025 16.407C91.925 16.5181 91.6345 16.5935 91.338 16.6312C91.0941 16.6665 90.848 16.6853 90.6016 16.6872C90.0524 16.7108 89.505 16.6096 89.0007 16.391C88.6191 16.2181 88.2944 15.9405 88.0641 15.5906C87.902 15.3332 87.788 15.0483 87.7279 14.7501L86.6393 14.7981Z" fill="#404040"/>
</g>
<defs>
<clipPath id="clip0_809_2952">
<rect width="25" height="22" fill="white"/>
</clipPath>
<clipPath id="clip1_809_2952">
<rect width="62.6998" height="14" fill="white" transform="translate(32 4)"/>
</clipPath>
</defs>
</svg>
